<svg width="56" height="50" viewBox="0 0 56 50" fill="none" xmlns="http://www.w3.org/2000/svg">
<path d="M12.0573 45.7324L12.2549 46.1088L12.6581 45.9743L18.6581 43.9743L19.1522 43.8096L18.9675 43.3227L14.0611 30.3876L21.5726 42.7595L21.7796 43.1005L22.1581 42.9743L28.1581 40.9743L28.6206 40.8202L28.4782 40.3539L23.5029 24.071L31.5554 39.7287L31.743 40.0934L32.1374 39.9808L39.1374 37.9808L39.5999 37.8486L39.4857 37.3813L34.5893 17.3505L42.035 36.1838L42.2004 36.6022L42.6338 36.4818L51.6338 33.9818L52.0841 33.8567L51.9897 33.399L45.4897 1.89895L45.4026 1.47686L44.9723 1.50077L26.9723 2.50077L26.7964 2.51054L26.6655 2.62835L1.66552 25.1284L1.37666 25.3883L1.5573 25.7324L12.0573 45.7324Z" fill="#FC5252" stroke="black"/>
<path d="M54.0394 46.9984L54.6129 46.9532L54.4881 46.3915L52.4881 37.3915L52.3755 36.8848L51.8733 37.0163L30.8733 42.5163L30.1287 42.7113L30.6096 43.3123L34.6096 48.3123L34.7751 48.5193L35.0394 48.4984L54.0394 46.9984Z" fill="#FC5252" stroke="black"/>
</svg>
